<mxfile host="app.diagrams.net" modified="2021-09-29T06:42:54.128Z" agent="5.0 (Macintosh; Intel Mac OS X 10_15_7) AppleWebKit/605.1.15 (KHTML, like Gecko) Version/15.0 Safari/605.1.15" etag="Cyrgkp6Xg2kw7IA8w13p" version="15.3.7" type="github" pages="3">
  <diagram id="k1nF03zysGhd_CwNFc21" name="Create">
    <mxGraphModel dx="946" dy="1707" grid="1" gridSize="10" guides="1" tooltips="1" connect="1" arrows="1" fold="1" page="1" pageScale="1" pageWidth="827" pageHeight="1169" math="0" shadow="0">
      <root>
        <mxCell id="0" />
        <mxCell id="1" parent="0" />
        <mxCell id="WyS34W7af3J4gwOdOwOQ-30" value="" style="edgeStyle=orthogonalEdgeStyle;rounded=0;orthogonalLoop=1;jettySize=auto;exitX=0.5;exitY=0;exitDx=0;exitDy=0;entryX=0.5;entryY=1;entryDx=0;entryDy=0;" parent="1" source="WyS34W7af3J4gwOdOwOQ-3" target="WyS34W7af3J4gwOdOwOQ-20" edge="1">
          <mxGeometry relative="1" as="geometry" />
        </mxCell>
        <mxCell id="WyS34W7af3J4gwOdOwOQ-3" value="L1" style="rounded=1;fillColor=#fff2cc;strokeColor=#d6b656;strokeWidth=3;" parent="1" vertex="1">
          <mxGeometry x="28.25" y="370" width="60" height="30" as="geometry" />
        </mxCell>
        <mxCell id="WyS34W7af3J4gwOdOwOQ-31" value="" style="edgeStyle=orthogonalEdgeStyle;rounded=0;orthogonalLoop=1;jettySize=auto;exitX=0.5;exitY=0;exitDx=0;exitDy=0;entryX=0.5;entryY=1;entryDx=0;entryDy=0;" parent="1" source="WyS34W7af3J4gwOdOwOQ-4" target="WyS34W7af3J4gwOdOwOQ-21" edge="1">
          <mxGeometry relative="1" as="geometry" />
        </mxCell>
        <mxCell id="WyS34W7af3J4gwOdOwOQ-4" value="L2" style="rounded=1;fillColor=#fff2cc;strokeColor=#d6b656;strokeWidth=3;" parent="1" vertex="1">
          <mxGeometry x="120.75" y="370" width="60" height="30" as="geometry" />
        </mxCell>
        <mxCell id="WyS34W7af3J4gwOdOwOQ-32" value="" style="edgeStyle=orthogonalEdgeStyle;rounded=0;orthogonalLoop=1;jettySize=auto;exitX=0.5;exitY=0;exitDx=0;exitDy=0;entryX=0.5;entryY=1;entryDx=0;entryDy=0;" parent="1" source="WyS34W7af3J4gwOdOwOQ-5" target="WyS34W7af3J4gwOdOwOQ-22" edge="1">
          <mxGeometry relative="1" as="geometry" />
        </mxCell>
        <mxCell id="WyS34W7af3J4gwOdOwOQ-5" value="L3" style="rounded=1;fillColor=#fff2cc;strokeColor=#d6b656;strokeWidth=3;" parent="1" vertex="1">
          <mxGeometry x="213.25" y="370" width="60" height="30" as="geometry" />
        </mxCell>
        <mxCell id="WyS34W7af3J4gwOdOwOQ-33" value="" style="edgeStyle=orthogonalEdgeStyle;rounded=0;orthogonalLoop=1;jettySize=auto;exitX=0.5;exitY=0;exitDx=0;exitDy=0;entryX=0.5;entryY=1;entryDx=0;entryDy=0;" parent="1" source="WyS34W7af3J4gwOdOwOQ-6" target="WyS34W7af3J4gwOdOwOQ-23" edge="1">
          <mxGeometry relative="1" as="geometry" />
        </mxCell>
        <mxCell id="WyS34W7af3J4gwOdOwOQ-6" value="L4" style="rounded=1;fillColor=#fff2cc;strokeColor=#d6b656;strokeWidth=3;" parent="1" vertex="1">
          <mxGeometry x="305.75" y="370" width="60" height="30" as="geometry" />
        </mxCell>
        <mxCell id="WyS34W7af3J4gwOdOwOQ-34" value="" style="edgeStyle=orthogonalEdgeStyle;rounded=0;orthogonalLoop=1;jettySize=auto;exitX=0.5;exitY=0;exitDx=0;exitDy=0;entryX=0.5;entryY=1;entryDx=0;entryDy=0;" parent="1" source="WyS34W7af3J4gwOdOwOQ-7" target="WyS34W7af3J4gwOdOwOQ-24" edge="1">
          <mxGeometry relative="1" as="geometry" />
        </mxCell>
        <mxCell id="WyS34W7af3J4gwOdOwOQ-7" value="L5" style="rounded=1;fillColor=#fff2cc;strokeWidth=3;strokeColor=#FF6666;" parent="1" vertex="1">
          <mxGeometry x="409.5" y="370" width="60" height="30" as="geometry" />
        </mxCell>
        <mxCell id="WyS34W7af3J4gwOdOwOQ-35" value="" style="edgeStyle=orthogonalEdgeStyle;rounded=0;orthogonalLoop=1;jettySize=auto;exitX=0.5;exitY=0;exitDx=0;exitDy=0;entryX=0.5;entryY=1;entryDx=0;entryDy=0;" parent="1" source="WyS34W7af3J4gwOdOwOQ-8" target="WyS34W7af3J4gwOdOwOQ-25" edge="1">
          <mxGeometry relative="1" as="geometry" />
        </mxCell>
        <mxCell id="WyS34W7af3J4gwOdOwOQ-8" value="L6" style="rounded=1;fillColor=#fff2cc;strokeColor=#d6b656;strokeWidth=3;" parent="1" vertex="1">
          <mxGeometry x="509.5" y="370" width="60" height="30" as="geometry" />
        </mxCell>
        <mxCell id="WyS34W7af3J4gwOdOwOQ-36" value="" style="edgeStyle=orthogonalEdgeStyle;rounded=0;orthogonalLoop=1;jettySize=auto;exitX=0.5;exitY=0;exitDx=0;exitDy=0;entryX=0.5;entryY=1;entryDx=0;entryDy=0;" parent="1" source="WyS34W7af3J4gwOdOwOQ-9" target="WyS34W7af3J4gwOdOwOQ-26" edge="1">
          <mxGeometry relative="1" as="geometry" />
        </mxCell>
        <mxCell id="WyS34W7af3J4gwOdOwOQ-9" value="L7" style="rounded=1;fillColor=#fff2cc;strokeColor=#d6b656;strokeWidth=3;" parent="1" vertex="1">
          <mxGeometry x="612" y="370" width="60" height="30" as="geometry" />
        </mxCell>
        <mxCell id="WyS34W7af3J4gwOdOwOQ-37" value="" style="edgeStyle=orthogonalEdgeStyle;rounded=0;orthogonalLoop=1;jettySize=auto;exitX=0.5;exitY=0;exitDx=0;exitDy=0;entryX=0.5;entryY=1;entryDx=0;entryDy=0;" parent="1" source="WyS34W7af3J4gwOdOwOQ-10" target="WyS34W7af3J4gwOdOwOQ-27" edge="1">
          <mxGeometry relative="1" as="geometry" />
        </mxCell>
        <mxCell id="WyS34W7af3J4gwOdOwOQ-10" value="L8" style="rounded=1;fillColor=#fff2cc;strokeColor=#d6b656;strokeWidth=3;" parent="1" vertex="1">
          <mxGeometry x="739.17" y="370" width="60" height="30" as="geometry" />
        </mxCell>
        <mxCell id="WyS34W7af3J4gwOdOwOQ-42" value="" style="rounded=0;orthogonalLoop=1;jettySize=auto;exitX=0.5;exitY=0;exitDx=0;exitDy=0;entryX=0.266;entryY=0.961;entryDx=0;entryDy=0;entryPerimeter=0;" parent="1" source="WyS34W7af3J4gwOdOwOQ-20" target="WyS34W7af3J4gwOdOwOQ-38" edge="1">
          <mxGeometry relative="1" as="geometry">
            <mxPoint x="30" y="260" as="targetPoint" />
          </mxGeometry>
        </mxCell>
        <mxCell id="WyS34W7af3J4gwOdOwOQ-20" value="H1_1 =&#xa;Hash(L1)" style="ellipse;strokeColor=#d6b656;strokeWidth=3;fillColor=#fff2cc;" parent="1" vertex="1">
          <mxGeometry x="17" y="280" width="82.5" height="60" as="geometry" />
        </mxCell>
        <mxCell id="WyS34W7af3J4gwOdOwOQ-43" value="" style="edgeStyle=none;rounded=0;orthogonalLoop=1;jettySize=auto;exitX=0.5;exitY=0;exitDx=0;exitDy=0;entryX=0.676;entryY=0.975;entryDx=0;entryDy=0;entryPerimeter=0;" parent="1" source="WyS34W7af3J4gwOdOwOQ-21" target="WyS34W7af3J4gwOdOwOQ-38" edge="1">
          <mxGeometry relative="1" as="geometry">
            <mxPoint x="120" y="240" as="targetPoint" />
          </mxGeometry>
        </mxCell>
        <mxCell id="WyS34W7af3J4gwOdOwOQ-21" value="H1_2 =&#xa;Hash(L2)" style="ellipse;strokeColor=#d6b656;strokeWidth=3;fillColor=#fff2cc;" parent="1" vertex="1">
          <mxGeometry x="108.25" y="280" width="85" height="60" as="geometry" />
        </mxCell>
        <mxCell id="WyS34W7af3J4gwOdOwOQ-44" value="" style="edgeStyle=none;rounded=0;orthogonalLoop=1;jettySize=auto;exitX=0.5;exitY=0;exitDx=0;exitDy=0;entryX=0.306;entryY=0.986;entryDx=0;entryDy=0;entryPerimeter=0;" parent="1" source="WyS34W7af3J4gwOdOwOQ-22" target="WyS34W7af3J4gwOdOwOQ-39" edge="1">
          <mxGeometry relative="1" as="geometry">
            <mxPoint x="220" y="260" as="targetPoint" />
          </mxGeometry>
        </mxCell>
        <mxCell id="WyS34W7af3J4gwOdOwOQ-22" value="H1_3 =&#xa;Hash(L3)" style="ellipse;strokeColor=#d6b656;strokeWidth=3;fillColor=#fff2cc;" parent="1" vertex="1">
          <mxGeometry x="200.75" y="280" width="85" height="60" as="geometry" />
        </mxCell>
        <mxCell id="WyS34W7af3J4gwOdOwOQ-45" value="" style="edgeStyle=none;rounded=0;orthogonalLoop=1;jettySize=auto;exitX=0.5;exitY=0;exitDx=0;exitDy=0;entryX=0.692;entryY=1;entryDx=0;entryDy=0;entryPerimeter=0;" parent="1" source="WyS34W7af3J4gwOdOwOQ-23" target="WyS34W7af3J4gwOdOwOQ-39" edge="1">
          <mxGeometry relative="1" as="geometry">
            <mxPoint x="370" y="250" as="targetPoint" />
          </mxGeometry>
        </mxCell>
        <mxCell id="WyS34W7af3J4gwOdOwOQ-23" value="H1_4 =&#xa;Hash(L4)" style="ellipse;strokeColor=#d6b656;strokeWidth=3;fillColor=#fff2cc;" parent="1" vertex="1">
          <mxGeometry x="293.25" y="280" width="85" height="60" as="geometry" />
        </mxCell>
        <mxCell id="WyS34W7af3J4gwOdOwOQ-61" value="" style="edgeStyle=none;rounded=0;orthogonalLoop=1;jettySize=auto;exitX=0.5;exitY=0;exitDx=0;exitDy=0;" parent="1" source="WyS34W7af3J4gwOdOwOQ-24" target="WyS34W7af3J4gwOdOwOQ-40" edge="1">
          <mxGeometry relative="1" as="geometry" />
        </mxCell>
        <mxCell id="WyS34W7af3J4gwOdOwOQ-24" value="H1_5 =&#xa;Hash(L5)" style="ellipse;strokeWidth=3;fillColor=#fff2cc;strokeColor=#FF6666;" parent="1" vertex="1">
          <mxGeometry x="397" y="280" width="85" height="60" as="geometry" />
        </mxCell>
        <mxCell id="WyS34W7af3J4gwOdOwOQ-47" value="" style="edgeStyle=none;rounded=0;orthogonalLoop=1;jettySize=auto;exitX=0.5;exitY=0;exitDx=0;exitDy=0;entryX=0.61;entryY=1.008;entryDx=0;entryDy=0;entryPerimeter=0;" parent="1" source="WyS34W7af3J4gwOdOwOQ-25" target="WyS34W7af3J4gwOdOwOQ-40" edge="1">
          <mxGeometry relative="1" as="geometry">
            <mxPoint x="510" y="250" as="targetPoint" />
          </mxGeometry>
        </mxCell>
        <mxCell id="WyS34W7af3J4gwOdOwOQ-25" value="H1_6 =&#xa;Hash(L6)" style="ellipse;strokeColor=#d6b656;strokeWidth=3;fillColor=#fff2cc;" parent="1" vertex="1">
          <mxGeometry x="497" y="280" width="85" height="60" as="geometry" />
        </mxCell>
        <mxCell id="WyS34W7af3J4gwOdOwOQ-48" value="" style="edgeStyle=none;rounded=0;orthogonalLoop=1;jettySize=auto;exitX=0.5;exitY=0;exitDx=0;exitDy=0;dashed=1;entryX=0.961;entryY=0.714;entryDx=0;entryDy=0;entryPerimeter=0;" parent="1" source="WyS34W7af3J4gwOdOwOQ-26" edge="1" target="WyS34W7af3J4gwOdOwOQ-40">
          <mxGeometry relative="1" as="geometry">
            <mxPoint x="569" y="251" as="targetPoint" />
          </mxGeometry>
        </mxCell>
        <mxCell id="WyS34W7af3J4gwOdOwOQ-62" value="" style="edgeStyle=none;rounded=0;orthogonalLoop=1;jettySize=auto;exitX=1;exitY=0;exitDx=0;exitDy=0;entryX=0.319;entryY=0.979;entryDx=0;entryDy=0;entryPerimeter=0;" parent="1" source="WyS34W7af3J4gwOdOwOQ-26" target="WyS34W7af3J4gwOdOwOQ-41" edge="1">
          <mxGeometry relative="1" as="geometry" />
        </mxCell>
        <mxCell id="WyS34W7af3J4gwOdOwOQ-26" value="H1_7 =&#xa;Hash(L7)" style="ellipse;strokeColor=#d6b656;strokeWidth=3;fillColor=#fff2cc;" parent="1" vertex="1">
          <mxGeometry x="599.5" y="280" width="85" height="60" as="geometry" />
        </mxCell>
        <mxCell id="WyS34W7af3J4gwOdOwOQ-49" value="" style="edgeStyle=none;rounded=0;orthogonalLoop=1;jettySize=auto;exitX=0.5;exitY=0;exitDx=0;exitDy=0;entryX=0.751;entryY=0.95;entryDx=0;entryDy=0;entryPerimeter=0;" parent="1" source="WyS34W7af3J4gwOdOwOQ-27" target="WyS34W7af3J4gwOdOwOQ-41" edge="1">
          <mxGeometry relative="1" as="geometry">
            <mxPoint x="720" y="240" as="targetPoint" />
          </mxGeometry>
        </mxCell>
        <mxCell id="WyS34W7af3J4gwOdOwOQ-27" value="H1_8 =&#xa;Hash(L8)" style="ellipse;strokeColor=#d6b656;strokeWidth=3;fillColor=#fff2cc;" parent="1" vertex="1">
          <mxGeometry x="725.42" y="280" width="85" height="60" as="geometry" />
        </mxCell>
        <mxCell id="WyS34W7af3J4gwOdOwOQ-52" value="" style="edgeStyle=none;rounded=0;orthogonalLoop=1;jettySize=auto;exitX=0.5;exitY=0;exitDx=0;exitDy=0;entryX=0;entryY=1;entryDx=0;entryDy=0;" parent="1" source="WyS34W7af3J4gwOdOwOQ-38" target="WyS34W7af3J4gwOdOwOQ-50" edge="1">
          <mxGeometry relative="1" as="geometry" />
        </mxCell>
        <mxCell id="WyS34W7af3J4gwOdOwOQ-38" value="H2_1 =&#xa;Hash(H1_1, H1_2)" style="ellipse;strokeColor=#d6b656;strokeWidth=3;fillColor=#fff2cc;" parent="1" vertex="1">
          <mxGeometry x="40" y="178.72" width="124.25" height="70" as="geometry" />
        </mxCell>
        <mxCell id="WyS34W7af3J4gwOdOwOQ-53" value="" style="edgeStyle=none;rounded=0;orthogonalLoop=1;jettySize=auto;exitX=0.5;exitY=0;exitDx=0;exitDy=0;entryX=1;entryY=1;entryDx=0;entryDy=0;" parent="1" source="WyS34W7af3J4gwOdOwOQ-39" target="WyS34W7af3J4gwOdOwOQ-50" edge="1">
          <mxGeometry relative="1" as="geometry" />
        </mxCell>
        <mxCell id="WyS34W7af3J4gwOdOwOQ-39" value="H2_2 =&#xa;Hash(H1_3, H1_4)" style="ellipse;strokeColor=#d6b656;strokeWidth=3;fillColor=#fff2cc;" parent="1" vertex="1">
          <mxGeometry x="230" y="180" width="124.25" height="70" as="geometry" />
        </mxCell>
        <mxCell id="WyS34W7af3J4gwOdOwOQ-54" value="" style="edgeStyle=none;rounded=0;orthogonalLoop=1;jettySize=auto;exitX=0.5;exitY=0;exitDx=0;exitDy=0;entryX=0;entryY=1;entryDx=0;entryDy=0;" parent="1" source="WyS34W7af3J4gwOdOwOQ-40" target="WyS34W7af3J4gwOdOwOQ-51" edge="1">
          <mxGeometry relative="1" as="geometry" />
        </mxCell>
        <mxCell id="WyS34W7af3J4gwOdOwOQ-40" value="H2_3 =&#xa;Hash(H1_5, H1_6)" style="ellipse;strokeWidth=3;fillColor=#fff2cc;strokeColor=#FF6666;" parent="1" vertex="1">
          <mxGeometry x="447.75" y="177.44" width="121.75" height="70" as="geometry" />
        </mxCell>
        <mxCell id="WyS34W7af3J4gwOdOwOQ-55" value="" style="edgeStyle=none;rounded=0;orthogonalLoop=1;jettySize=auto;exitX=0.5;exitY=0;exitDx=0;exitDy=0;entryX=1;entryY=1;entryDx=0;entryDy=0;" parent="1" source="WyS34W7af3J4gwOdOwOQ-41" target="WyS34W7af3J4gwOdOwOQ-51" edge="1">
          <mxGeometry relative="1" as="geometry">
            <mxPoint x="697" y="190" as="targetPoint" />
          </mxGeometry>
        </mxCell>
        <mxCell id="WyS34W7af3J4gwOdOwOQ-41" value="H2_4 =&#xa;Hash(H1_7, H1_8)" style="ellipse;strokeWidth=3;fillColor=#fff2cc;strokeColor=#FF6666;" parent="1" vertex="1">
          <mxGeometry x="650" y="178.72" width="119.17" height="68.72" as="geometry" />
        </mxCell>
        <mxCell id="WyS34W7af3J4gwOdOwOQ-57" value="" style="edgeStyle=none;rounded=0;orthogonalLoop=1;jettySize=auto;exitX=0.5;exitY=0;exitDx=0;exitDy=0;entryX=0;entryY=1;entryDx=0;entryDy=0;" parent="1" source="WyS34W7af3J4gwOdOwOQ-50" target="WyS34W7af3J4gwOdOwOQ-56" edge="1">
          <mxGeometry relative="1" as="geometry" />
        </mxCell>
        <mxCell id="WyS34W7af3J4gwOdOwOQ-50" value="H3_1 =&#xa;Hash(H2_1, H2_2)" style="ellipse;strokeColor=#d6b656;strokeWidth=3;fillColor=#fff2cc;" parent="1" vertex="1">
          <mxGeometry x="130" y="70" width="114.25" height="70" as="geometry" />
        </mxCell>
        <mxCell id="WyS34W7af3J4gwOdOwOQ-58" value="" style="edgeStyle=none;rounded=0;orthogonalLoop=1;jettySize=auto;exitX=0;exitY=0;exitDx=0;exitDy=0;entryX=1;entryY=1;entryDx=0;entryDy=0;" parent="1" source="WyS34W7af3J4gwOdOwOQ-51" target="WyS34W7af3J4gwOdOwOQ-56" edge="1">
          <mxGeometry relative="1" as="geometry" />
        </mxCell>
        <mxCell id="WyS34W7af3J4gwOdOwOQ-51" value="H3_2 =&#xa;Hash(H2_3, H2_4)" style="ellipse;strokeWidth=3;fillColor=#fff2cc;strokeColor=#FF6666;" parent="1" vertex="1">
          <mxGeometry x="522" y="70" width="128" height="70" as="geometry" />
        </mxCell>
        <mxCell id="WyS34W7af3J4gwOdOwOQ-56" value="H4_1 =&#xa;Hash(H3_1, H3_2)" style="ellipse;strokeWidth=3;fillColor=#fff2cc;strokeColor=#FF6666;" parent="1" vertex="1">
          <mxGeometry x="305.75" y="-30" width="133" height="70" as="geometry" />
        </mxCell>
      </root>
    </mxGraphModel>
  </diagram>
  <diagram id="EKVOqdvxPNdU1rzFcuh7" name="Update">
    <mxGraphModel dx="946" dy="538" grid="1" gridSize="10" guides="1" tooltips="1" connect="1" arrows="1" fold="1" page="1" pageScale="1" pageWidth="827" pageHeight="1169" math="0" shadow="0">
      <root>
        <mxCell id="Wb4yIE2d1NivTpbuQsiC-0" />
        <mxCell id="Wb4yIE2d1NivTpbuQsiC-1" parent="Wb4yIE2d1NivTpbuQsiC-0" />
        <mxCell id="U0yheI_mIUvBaA4ScWsQ-0" value="" style="edgeStyle=orthogonalEdgeStyle;rounded=0;orthogonalLoop=1;jettySize=auto;exitX=0.5;exitY=0;exitDx=0;exitDy=0;entryX=0.5;entryY=1;entryDx=0;entryDy=0;" parent="Wb4yIE2d1NivTpbuQsiC-1" source="U0yheI_mIUvBaA4ScWsQ-1" target="U0yheI_mIUvBaA4ScWsQ-17" edge="1">
          <mxGeometry relative="1" as="geometry" />
        </mxCell>
        <mxCell id="U0yheI_mIUvBaA4ScWsQ-1" value="L1" style="rounded=1;fillColor=#fff2cc;strokeColor=#d6b656;strokeWidth=3;" parent="Wb4yIE2d1NivTpbuQsiC-1" vertex="1">
          <mxGeometry x="28.25" y="370" width="60" height="30" as="geometry" />
        </mxCell>
        <mxCell id="U0yheI_mIUvBaA4ScWsQ-2" value="" style="edgeStyle=orthogonalEdgeStyle;rounded=0;orthogonalLoop=1;jettySize=auto;exitX=0.5;exitY=0;exitDx=0;exitDy=0;entryX=0.5;entryY=1;entryDx=0;entryDy=0;" parent="Wb4yIE2d1NivTpbuQsiC-1" source="U0yheI_mIUvBaA4ScWsQ-3" target="U0yheI_mIUvBaA4ScWsQ-19" edge="1">
          <mxGeometry relative="1" as="geometry" />
        </mxCell>
        <mxCell id="U0yheI_mIUvBaA4ScWsQ-3" value="L2" style="rounded=1;fillColor=#fff2cc;strokeColor=#d6b656;strokeWidth=3;" parent="Wb4yIE2d1NivTpbuQsiC-1" vertex="1">
          <mxGeometry x="120.75" y="370" width="60" height="30" as="geometry" />
        </mxCell>
        <mxCell id="U0yheI_mIUvBaA4ScWsQ-4" value="" style="edgeStyle=orthogonalEdgeStyle;rounded=0;orthogonalLoop=1;jettySize=auto;exitX=0.5;exitY=0;exitDx=0;exitDy=0;entryX=0.5;entryY=1;entryDx=0;entryDy=0;" parent="Wb4yIE2d1NivTpbuQsiC-1" source="U0yheI_mIUvBaA4ScWsQ-5" target="U0yheI_mIUvBaA4ScWsQ-21" edge="1">
          <mxGeometry relative="1" as="geometry" />
        </mxCell>
        <mxCell id="U0yheI_mIUvBaA4ScWsQ-5" value="L3" style="rounded=1;fillColor=#fff2cc;strokeColor=#d6b656;strokeWidth=3;" parent="Wb4yIE2d1NivTpbuQsiC-1" vertex="1">
          <mxGeometry x="213.25" y="370" width="60" height="30" as="geometry" />
        </mxCell>
        <mxCell id="U0yheI_mIUvBaA4ScWsQ-6" value="" style="edgeStyle=orthogonalEdgeStyle;rounded=0;orthogonalLoop=1;jettySize=auto;exitX=0.5;exitY=0;exitDx=0;exitDy=0;entryX=0.5;entryY=1;entryDx=0;entryDy=0;" parent="Wb4yIE2d1NivTpbuQsiC-1" source="U0yheI_mIUvBaA4ScWsQ-7" target="U0yheI_mIUvBaA4ScWsQ-23" edge="1">
          <mxGeometry relative="1" as="geometry" />
        </mxCell>
        <mxCell id="U0yheI_mIUvBaA4ScWsQ-7" value="L4" style="rounded=1;fillColor=#fff2cc;strokeColor=#d6b656;strokeWidth=3;" parent="Wb4yIE2d1NivTpbuQsiC-1" vertex="1">
          <mxGeometry x="305.75" y="370" width="60" height="30" as="geometry" />
        </mxCell>
        <mxCell id="U0yheI_mIUvBaA4ScWsQ-8" value="" style="edgeStyle=orthogonalEdgeStyle;rounded=0;orthogonalLoop=1;jettySize=auto;exitX=0.5;exitY=0;exitDx=0;exitDy=0;entryX=0.5;entryY=1;entryDx=0;entryDy=0;" parent="Wb4yIE2d1NivTpbuQsiC-1" source="U0yheI_mIUvBaA4ScWsQ-9" target="U0yheI_mIUvBaA4ScWsQ-25" edge="1">
          <mxGeometry relative="1" as="geometry" />
        </mxCell>
        <mxCell id="U0yheI_mIUvBaA4ScWsQ-9" value="L5" style="rounded=1;fillColor=#fff2cc;strokeWidth=3;strokeColor=#FF6666;" parent="Wb4yIE2d1NivTpbuQsiC-1" vertex="1">
          <mxGeometry x="409.5" y="370" width="60" height="30" as="geometry" />
        </mxCell>
        <mxCell id="U0yheI_mIUvBaA4ScWsQ-10" value="" style="edgeStyle=orthogonalEdgeStyle;rounded=0;orthogonalLoop=1;jettySize=auto;exitX=0.5;exitY=0;exitDx=0;exitDy=0;entryX=0.5;entryY=1;entryDx=0;entryDy=0;" parent="Wb4yIE2d1NivTpbuQsiC-1" source="U0yheI_mIUvBaA4ScWsQ-11" target="U0yheI_mIUvBaA4ScWsQ-27" edge="1">
          <mxGeometry relative="1" as="geometry" />
        </mxCell>
        <mxCell id="U0yheI_mIUvBaA4ScWsQ-11" value="L6" style="rounded=1;fillColor=#fff2cc;strokeColor=#d6b656;strokeWidth=3;" parent="Wb4yIE2d1NivTpbuQsiC-1" vertex="1">
          <mxGeometry x="509.5" y="370" width="60" height="30" as="geometry" />
        </mxCell>
        <mxCell id="U0yheI_mIUvBaA4ScWsQ-12" value="" style="edgeStyle=orthogonalEdgeStyle;rounded=0;orthogonalLoop=1;jettySize=auto;exitX=0.5;exitY=0;exitDx=0;exitDy=0;entryX=0.5;entryY=1;entryDx=0;entryDy=0;" parent="Wb4yIE2d1NivTpbuQsiC-1" source="U0yheI_mIUvBaA4ScWsQ-13" target="U0yheI_mIUvBaA4ScWsQ-30" edge="1">
          <mxGeometry relative="1" as="geometry" />
        </mxCell>
        <mxCell id="U0yheI_mIUvBaA4ScWsQ-13" value="L7" style="rounded=1;fillColor=#fff2cc;strokeColor=#d6b656;strokeWidth=3;" parent="Wb4yIE2d1NivTpbuQsiC-1" vertex="1">
          <mxGeometry x="612" y="370" width="60" height="30" as="geometry" />
        </mxCell>
        <mxCell id="U0yheI_mIUvBaA4ScWsQ-14" value="" style="edgeStyle=orthogonalEdgeStyle;rounded=0;orthogonalLoop=1;jettySize=auto;exitX=0.5;exitY=0;exitDx=0;exitDy=0;entryX=0.5;entryY=1;entryDx=0;entryDy=0;" parent="Wb4yIE2d1NivTpbuQsiC-1" source="U0yheI_mIUvBaA4ScWsQ-15" target="U0yheI_mIUvBaA4ScWsQ-32" edge="1">
          <mxGeometry relative="1" as="geometry" />
        </mxCell>
        <mxCell id="U0yheI_mIUvBaA4ScWsQ-15" value="L8" style="rounded=1;fillColor=#fff2cc;strokeColor=#d6b656;strokeWidth=3;" parent="Wb4yIE2d1NivTpbuQsiC-1" vertex="1">
          <mxGeometry x="712" y="370" width="60" height="30" as="geometry" />
        </mxCell>
        <mxCell id="U0yheI_mIUvBaA4ScWsQ-16" value="" style="rounded=0;orthogonalLoop=1;jettySize=auto;exitX=0.5;exitY=0;exitDx=0;exitDy=0;entryX=0.21;entryY=0.957;entryDx=0;entryDy=0;entryPerimeter=0;" parent="Wb4yIE2d1NivTpbuQsiC-1" source="U0yheI_mIUvBaA4ScWsQ-17" target="U0yheI_mIUvBaA4ScWsQ-34" edge="1">
          <mxGeometry relative="1" as="geometry" />
        </mxCell>
        <mxCell id="U0yheI_mIUvBaA4ScWsQ-17" value="H1_1 =&#xa;Hash(L1)" style="ellipse;strokeColor=#d6b656;strokeWidth=3;fillColor=#fff2cc;" parent="Wb4yIE2d1NivTpbuQsiC-1" vertex="1">
          <mxGeometry x="17" y="280" width="82.5" height="60" as="geometry" />
        </mxCell>
        <mxCell id="U0yheI_mIUvBaA4ScWsQ-18" value="" style="edgeStyle=none;rounded=0;orthogonalLoop=1;jettySize=auto;exitX=0.5;exitY=0;exitDx=0;exitDy=0;entryX=0.665;entryY=0.986;entryDx=0;entryDy=0;entryPerimeter=0;" parent="Wb4yIE2d1NivTpbuQsiC-1" source="U0yheI_mIUvBaA4ScWsQ-19" target="U0yheI_mIUvBaA4ScWsQ-34" edge="1">
          <mxGeometry relative="1" as="geometry" />
        </mxCell>
        <mxCell id="U0yheI_mIUvBaA4ScWsQ-19" value="H1_2 =&#xa;Hash(L2)" style="ellipse;strokeColor=#d6b656;strokeWidth=3;fillColor=#fff2cc;" parent="Wb4yIE2d1NivTpbuQsiC-1" vertex="1">
          <mxGeometry x="108.25" y="280" width="85" height="60" as="geometry" />
        </mxCell>
        <mxCell id="U0yheI_mIUvBaA4ScWsQ-20" value="" style="edgeStyle=none;rounded=0;orthogonalLoop=1;jettySize=auto;exitX=0.5;exitY=0;exitDx=0;exitDy=0;entryX=0.289;entryY=0.957;entryDx=0;entryDy=0;entryPerimeter=0;" parent="Wb4yIE2d1NivTpbuQsiC-1" source="U0yheI_mIUvBaA4ScWsQ-21" target="U0yheI_mIUvBaA4ScWsQ-36" edge="1">
          <mxGeometry relative="1" as="geometry" />
        </mxCell>
        <mxCell id="U0yheI_mIUvBaA4ScWsQ-21" value="H1_3 =&#xa;Hash(L3)" style="ellipse;strokeColor=#d6b656;strokeWidth=3;fillColor=#fff2cc;" parent="Wb4yIE2d1NivTpbuQsiC-1" vertex="1">
          <mxGeometry x="200.75" y="280" width="85" height="60" as="geometry" />
        </mxCell>
        <mxCell id="U0yheI_mIUvBaA4ScWsQ-22" value="" style="edgeStyle=none;rounded=0;orthogonalLoop=1;jettySize=auto;exitX=0.5;exitY=0;exitDx=0;exitDy=0;entryX=0.753;entryY=0.957;entryDx=0;entryDy=0;entryPerimeter=0;" parent="Wb4yIE2d1NivTpbuQsiC-1" source="U0yheI_mIUvBaA4ScWsQ-23" target="U0yheI_mIUvBaA4ScWsQ-36" edge="1">
          <mxGeometry relative="1" as="geometry">
            <mxPoint x="300" y="270" as="targetPoint" />
          </mxGeometry>
        </mxCell>
        <mxCell id="U0yheI_mIUvBaA4ScWsQ-23" value="H1_4 =&#xa;Hash(L4)" style="ellipse;strokeColor=#d6b656;strokeWidth=3;fillColor=#fff2cc;" parent="Wb4yIE2d1NivTpbuQsiC-1" vertex="1">
          <mxGeometry x="293.25" y="280" width="85" height="60" as="geometry" />
        </mxCell>
        <mxCell id="U0yheI_mIUvBaA4ScWsQ-24" value="" style="edgeStyle=none;rounded=0;orthogonalLoop=1;jettySize=auto;exitX=0.5;exitY=0;exitDx=0;exitDy=0;entryX=0.261;entryY=0.986;entryDx=0;entryDy=0;entryPerimeter=0;" parent="Wb4yIE2d1NivTpbuQsiC-1" source="U0yheI_mIUvBaA4ScWsQ-25" target="U0yheI_mIUvBaA4ScWsQ-38" edge="1">
          <mxGeometry relative="1" as="geometry" />
        </mxCell>
        <mxCell id="U0yheI_mIUvBaA4ScWsQ-25" value="H1_5 =&#xa;Hash(L5)" style="ellipse;strokeWidth=3;fillColor=#fff2cc;strokeColor=#FF6666;" parent="Wb4yIE2d1NivTpbuQsiC-1" vertex="1">
          <mxGeometry x="397" y="280" width="85" height="60" as="geometry" />
        </mxCell>
        <mxCell id="U0yheI_mIUvBaA4ScWsQ-26" value="" style="edgeStyle=none;rounded=0;orthogonalLoop=1;jettySize=auto;exitX=0.5;exitY=0;exitDx=0;exitDy=0;entryX=0.718;entryY=0.986;entryDx=0;entryDy=0;entryPerimeter=0;" parent="Wb4yIE2d1NivTpbuQsiC-1" source="U0yheI_mIUvBaA4ScWsQ-27" target="U0yheI_mIUvBaA4ScWsQ-38" edge="1">
          <mxGeometry relative="1" as="geometry" />
        </mxCell>
        <mxCell id="U0yheI_mIUvBaA4ScWsQ-27" value="H1_6 =&#xa;Hash(L6)" style="ellipse;strokeColor=#d6b656;strokeWidth=3;fillColor=#fff2cc;" parent="Wb4yIE2d1NivTpbuQsiC-1" vertex="1">
          <mxGeometry x="497" y="280" width="85" height="60" as="geometry" />
        </mxCell>
        <mxCell id="U0yheI_mIUvBaA4ScWsQ-29" value="" style="edgeStyle=none;rounded=0;orthogonalLoop=1;jettySize=auto;entryX=0.292;entryY=0.971;entryDx=0;entryDy=0;entryPerimeter=0;" parent="Wb4yIE2d1NivTpbuQsiC-1" target="U0yheI_mIUvBaA4ScWsQ-40" edge="1">
          <mxGeometry relative="1" as="geometry">
            <mxPoint x="642" y="280" as="sourcePoint" />
          </mxGeometry>
        </mxCell>
        <mxCell id="U0yheI_mIUvBaA4ScWsQ-30" value="H1_7 =&#xa;Hash(L7)" style="ellipse;strokeColor=#d6b656;strokeWidth=3;fillColor=#fff2cc;" parent="Wb4yIE2d1NivTpbuQsiC-1" vertex="1">
          <mxGeometry x="599.5" y="280" width="85" height="60" as="geometry" />
        </mxCell>
        <mxCell id="U0yheI_mIUvBaA4ScWsQ-31" value="" style="edgeStyle=none;rounded=0;orthogonalLoop=1;jettySize=auto;exitX=0.5;exitY=0;exitDx=0;exitDy=0;entryX=0.708;entryY=0.957;entryDx=0;entryDy=0;entryPerimeter=0;" parent="Wb4yIE2d1NivTpbuQsiC-1" source="U0yheI_mIUvBaA4ScWsQ-32" target="U0yheI_mIUvBaA4ScWsQ-40" edge="1">
          <mxGeometry relative="1" as="geometry" />
        </mxCell>
        <mxCell id="U0yheI_mIUvBaA4ScWsQ-32" value="H1_8 =&#xa;Hash(L8)" style="ellipse;strokeColor=#d6b656;strokeWidth=3;fillColor=#fff2cc;" parent="Wb4yIE2d1NivTpbuQsiC-1" vertex="1">
          <mxGeometry x="699.5" y="280" width="85" height="60" as="geometry" />
        </mxCell>
        <mxCell id="U0yheI_mIUvBaA4ScWsQ-33" value="" style="edgeStyle=none;rounded=0;orthogonalLoop=1;jettySize=auto;exitX=0.5;exitY=0;exitDx=0;exitDy=0;entryX=0;entryY=1;entryDx=0;entryDy=0;" parent="Wb4yIE2d1NivTpbuQsiC-1" source="U0yheI_mIUvBaA4ScWsQ-34" target="U0yheI_mIUvBaA4ScWsQ-42" edge="1">
          <mxGeometry relative="1" as="geometry" />
        </mxCell>
        <mxCell id="U0yheI_mIUvBaA4ScWsQ-34" value="H2_1 =&#xa;Hash(H1_1, H1_2)" style="ellipse;strokeColor=#d6b656;strokeWidth=3;fillColor=#fff2cc;" parent="Wb4yIE2d1NivTpbuQsiC-1" vertex="1">
          <mxGeometry x="50" y="190" width="114.25" height="70" as="geometry" />
        </mxCell>
        <mxCell id="U0yheI_mIUvBaA4ScWsQ-35" value="" style="edgeStyle=none;rounded=0;orthogonalLoop=1;jettySize=auto;exitX=0.5;exitY=0;exitDx=0;exitDy=0;entryX=1;entryY=1;entryDx=0;entryDy=0;" parent="Wb4yIE2d1NivTpbuQsiC-1" source="U0yheI_mIUvBaA4ScWsQ-36" target="U0yheI_mIUvBaA4ScWsQ-42" edge="1">
          <mxGeometry relative="1" as="geometry" />
        </mxCell>
        <mxCell id="U0yheI_mIUvBaA4ScWsQ-36" value="H2_2 =&#xa;Hash(H1_3, H1_4)" style="ellipse;strokeColor=#d6b656;strokeWidth=3;fillColor=#fff2cc;" parent="Wb4yIE2d1NivTpbuQsiC-1" vertex="1">
          <mxGeometry x="230" y="190" width="114.25" height="70" as="geometry" />
        </mxCell>
        <mxCell id="U0yheI_mIUvBaA4ScWsQ-37" value="" style="edgeStyle=none;rounded=0;orthogonalLoop=1;jettySize=auto;exitX=0.5;exitY=0;exitDx=0;exitDy=0;entryX=0;entryY=1;entryDx=0;entryDy=0;" parent="Wb4yIE2d1NivTpbuQsiC-1" source="U0yheI_mIUvBaA4ScWsQ-38" target="U0yheI_mIUvBaA4ScWsQ-44" edge="1">
          <mxGeometry relative="1" as="geometry" />
        </mxCell>
        <mxCell id="U0yheI_mIUvBaA4ScWsQ-38" value="H2_3 =&#xa;Hash(H1_5, H1_6)" style="ellipse;strokeWidth=3;fillColor=#fff2cc;strokeColor=#FF6666;" parent="Wb4yIE2d1NivTpbuQsiC-1" vertex="1">
          <mxGeometry x="429.5" y="190" width="120.5" height="70" as="geometry" />
        </mxCell>
        <mxCell id="U0yheI_mIUvBaA4ScWsQ-39" value="" style="edgeStyle=none;rounded=0;orthogonalLoop=1;jettySize=auto;exitX=0.5;exitY=0;exitDx=0;exitDy=0;entryX=1;entryY=1;entryDx=0;entryDy=0;" parent="Wb4yIE2d1NivTpbuQsiC-1" source="U0yheI_mIUvBaA4ScWsQ-40" target="U0yheI_mIUvBaA4ScWsQ-44" edge="1">
          <mxGeometry relative="1" as="geometry">
            <mxPoint x="697" y="190" as="targetPoint" />
          </mxGeometry>
        </mxCell>
        <mxCell id="U0yheI_mIUvBaA4ScWsQ-40" value="H2_4 =&#xa;Hash(H1_7, H1_8)" style="ellipse;strokeWidth=3;fillColor=#fff2cc;strokeColor=#d6b656;" parent="Wb4yIE2d1NivTpbuQsiC-1" vertex="1">
          <mxGeometry x="630" y="190" width="120" height="70" as="geometry" />
        </mxCell>
        <mxCell id="U0yheI_mIUvBaA4ScWsQ-41" value="" style="edgeStyle=none;rounded=0;orthogonalLoop=1;jettySize=auto;exitX=0.5;exitY=0;exitDx=0;exitDy=0;entryX=0;entryY=1;entryDx=0;entryDy=0;" parent="Wb4yIE2d1NivTpbuQsiC-1" source="U0yheI_mIUvBaA4ScWsQ-42" target="U0yheI_mIUvBaA4ScWsQ-45" edge="1">
          <mxGeometry relative="1" as="geometry" />
        </mxCell>
        <mxCell id="U0yheI_mIUvBaA4ScWsQ-42" value="H3_1 =&#xa;Hash(H2_1, H2_2)" style="ellipse;strokeColor=#d6b656;strokeWidth=3;fillColor=#fff2cc;" parent="Wb4yIE2d1NivTpbuQsiC-1" vertex="1">
          <mxGeometry x="140" y="100" width="114.25" height="70" as="geometry" />
        </mxCell>
        <mxCell id="U0yheI_mIUvBaA4ScWsQ-43" value="" style="edgeStyle=none;rounded=0;orthogonalLoop=1;jettySize=auto;exitX=0;exitY=0;exitDx=0;exitDy=0;entryX=1;entryY=1;entryDx=0;entryDy=0;" parent="Wb4yIE2d1NivTpbuQsiC-1" source="U0yheI_mIUvBaA4ScWsQ-44" target="U0yheI_mIUvBaA4ScWsQ-45" edge="1">
          <mxGeometry relative="1" as="geometry" />
        </mxCell>
        <mxCell id="U0yheI_mIUvBaA4ScWsQ-44" value="H3_2 =&#xa;Hash(H2_3, H2_4)" style="ellipse;strokeWidth=3;fillColor=#fff2cc;strokeColor=#FF6666;" parent="Wb4yIE2d1NivTpbuQsiC-1" vertex="1">
          <mxGeometry x="530" y="100" width="120" height="70" as="geometry" />
        </mxCell>
        <mxCell id="U0yheI_mIUvBaA4ScWsQ-45" value="H4_1 =&#xa;Hash(H3_1, H3_2)" style="ellipse;strokeWidth=3;fillColor=#fff2cc;strokeColor=#FF6666;" parent="Wb4yIE2d1NivTpbuQsiC-1" vertex="1">
          <mxGeometry x="330" y="10" width="120" height="70" as="geometry" />
        </mxCell>
      </root>
    </mxGraphModel>
  </diagram>
  <diagram id="rPqzLxhIoH-ud8u4xm7z" name="Delete">
    <mxGraphModel dx="946" dy="538" grid="1" gridSize="10" guides="1" tooltips="1" connect="1" arrows="1" fold="1" page="1" pageScale="1" pageWidth="827" pageHeight="1169" math="0" shadow="0">
      <root>
        <mxCell id="YxgZHzmAjiqWRgQqq1Xk-0" />
        <mxCell id="YxgZHzmAjiqWRgQqq1Xk-1" parent="YxgZHzmAjiqWRgQqq1Xk-0" />
        <mxCell id="YxgZHzmAjiqWRgQqq1Xk-2" value="" style="edgeStyle=orthogonalEdgeStyle;rounded=0;orthogonalLoop=1;jettySize=auto;exitX=0.5;exitY=0;exitDx=0;exitDy=0;entryX=0.5;entryY=1;entryDx=0;entryDy=0;" parent="YxgZHzmAjiqWRgQqq1Xk-1" source="YxgZHzmAjiqWRgQqq1Xk-3" target="YxgZHzmAjiqWRgQqq1Xk-19" edge="1">
          <mxGeometry relative="1" as="geometry" />
        </mxCell>
        <mxCell id="YxgZHzmAjiqWRgQqq1Xk-3" value="L1" style="rounded=1;fillColor=#fff2cc;strokeColor=#d6b656;strokeWidth=3;" parent="YxgZHzmAjiqWRgQqq1Xk-1" vertex="1">
          <mxGeometry x="28.25" y="370" width="60" height="30" as="geometry" />
        </mxCell>
        <mxCell id="YxgZHzmAjiqWRgQqq1Xk-4" value="" style="edgeStyle=orthogonalEdgeStyle;rounded=0;orthogonalLoop=1;jettySize=auto;exitX=0.5;exitY=0;exitDx=0;exitDy=0;entryX=0.5;entryY=1;entryDx=0;entryDy=0;" parent="YxgZHzmAjiqWRgQqq1Xk-1" source="YxgZHzmAjiqWRgQqq1Xk-5" target="YxgZHzmAjiqWRgQqq1Xk-21" edge="1">
          <mxGeometry relative="1" as="geometry" />
        </mxCell>
        <mxCell id="YxgZHzmAjiqWRgQqq1Xk-5" value="L2" style="rounded=1;fillColor=#fff2cc;strokeColor=#d6b656;strokeWidth=3;" parent="YxgZHzmAjiqWRgQqq1Xk-1" vertex="1">
          <mxGeometry x="120.75" y="370" width="60" height="30" as="geometry" />
        </mxCell>
        <mxCell id="YxgZHzmAjiqWRgQqq1Xk-6" value="" style="edgeStyle=orthogonalEdgeStyle;rounded=0;orthogonalLoop=1;jettySize=auto;exitX=0.5;exitY=0;exitDx=0;exitDy=0;entryX=0.5;entryY=1;entryDx=0;entryDy=0;" parent="YxgZHzmAjiqWRgQqq1Xk-1" source="YxgZHzmAjiqWRgQqq1Xk-7" target="YxgZHzmAjiqWRgQqq1Xk-23" edge="1">
          <mxGeometry relative="1" as="geometry" />
        </mxCell>
        <mxCell id="YxgZHzmAjiqWRgQqq1Xk-7" value="L3" style="rounded=1;fillColor=#fff2cc;strokeColor=#d6b656;strokeWidth=3;" parent="YxgZHzmAjiqWRgQqq1Xk-1" vertex="1">
          <mxGeometry x="213.25" y="370" width="60" height="30" as="geometry" />
        </mxCell>
        <mxCell id="YxgZHzmAjiqWRgQqq1Xk-8" value="" style="edgeStyle=orthogonalEdgeStyle;rounded=0;orthogonalLoop=1;jettySize=auto;exitX=0.5;exitY=0;exitDx=0;exitDy=0;entryX=0.5;entryY=1;entryDx=0;entryDy=0;" parent="YxgZHzmAjiqWRgQqq1Xk-1" source="YxgZHzmAjiqWRgQqq1Xk-9" target="YxgZHzmAjiqWRgQqq1Xk-25" edge="1">
          <mxGeometry relative="1" as="geometry" />
        </mxCell>
        <mxCell id="YxgZHzmAjiqWRgQqq1Xk-9" value="L4" style="rounded=1;fillColor=#fff2cc;strokeColor=#d6b656;strokeWidth=3;" parent="YxgZHzmAjiqWRgQqq1Xk-1" vertex="1">
          <mxGeometry x="305.75" y="370" width="60" height="30" as="geometry" />
        </mxCell>
        <mxCell id="YxgZHzmAjiqWRgQqq1Xk-10" value="" style="edgeStyle=orthogonalEdgeStyle;rounded=0;orthogonalLoop=1;jettySize=auto;exitX=0.5;exitY=0;exitDx=0;exitDy=0;entryX=0.5;entryY=1;entryDx=0;entryDy=0;" parent="YxgZHzmAjiqWRgQqq1Xk-1" source="YxgZHzmAjiqWRgQqq1Xk-11" target="YxgZHzmAjiqWRgQqq1Xk-27" edge="1">
          <mxGeometry relative="1" as="geometry" />
        </mxCell>
        <mxCell id="YxgZHzmAjiqWRgQqq1Xk-11" value="L5" style="rounded=1;fillColor=#fff2cc;strokeWidth=3;strokeColor=#d6b656;" parent="YxgZHzmAjiqWRgQqq1Xk-1" vertex="1">
          <mxGeometry x="409.5" y="370" width="60" height="30" as="geometry" />
        </mxCell>
        <mxCell id="YxgZHzmAjiqWRgQqq1Xk-12" value="" style="edgeStyle=orthogonalEdgeStyle;rounded=0;orthogonalLoop=1;jettySize=auto;exitX=0.5;exitY=0;exitDx=0;exitDy=0;entryX=0.5;entryY=1;entryDx=0;entryDy=0;" parent="YxgZHzmAjiqWRgQqq1Xk-1" source="YxgZHzmAjiqWRgQqq1Xk-13" target="YxgZHzmAjiqWRgQqq1Xk-29" edge="1">
          <mxGeometry relative="1" as="geometry" />
        </mxCell>
        <mxCell id="YxgZHzmAjiqWRgQqq1Xk-13" value="L6" style="rounded=1;fillColor=#fff2cc;strokeColor=#d6b656;strokeWidth=3;" parent="YxgZHzmAjiqWRgQqq1Xk-1" vertex="1">
          <mxGeometry x="509.5" y="370" width="60" height="30" as="geometry" />
        </mxCell>
        <mxCell id="YxgZHzmAjiqWRgQqq1Xk-14" value="" style="edgeStyle=orthogonalEdgeStyle;rounded=0;orthogonalLoop=1;jettySize=auto;exitX=0.5;exitY=0;exitDx=0;exitDy=0;entryX=0.5;entryY=1;entryDx=0;entryDy=0;" parent="YxgZHzmAjiqWRgQqq1Xk-1" source="YxgZHzmAjiqWRgQqq1Xk-15" target="YxgZHzmAjiqWRgQqq1Xk-31" edge="1">
          <mxGeometry relative="1" as="geometry" />
        </mxCell>
        <mxCell id="YxgZHzmAjiqWRgQqq1Xk-15" value="L7" style="rounded=1;fillColor=#fff2cc;strokeColor=#d6b656;strokeWidth=3;" parent="YxgZHzmAjiqWRgQqq1Xk-1" vertex="1">
          <mxGeometry x="612" y="370" width="60" height="30" as="geometry" />
        </mxCell>
        <mxCell id="YxgZHzmAjiqWRgQqq1Xk-16" value="" style="edgeStyle=orthogonalEdgeStyle;rounded=0;orthogonalLoop=1;jettySize=auto;exitX=0.5;exitY=0;exitDx=0;exitDy=0;entryX=0.5;entryY=1;entryDx=0;entryDy=0;" parent="YxgZHzmAjiqWRgQqq1Xk-1" source="YxgZHzmAjiqWRgQqq1Xk-17" target="YxgZHzmAjiqWRgQqq1Xk-33" edge="1">
          <mxGeometry relative="1" as="geometry" />
        </mxCell>
        <mxCell id="YxgZHzmAjiqWRgQqq1Xk-17" value="L8" style="rounded=1;fillColor=#fff2cc;strokeColor=#d6b656;strokeWidth=3;" parent="YxgZHzmAjiqWRgQqq1Xk-1" vertex="1">
          <mxGeometry x="709.5" y="370" width="60" height="30" as="geometry" />
        </mxCell>
        <mxCell id="YxgZHzmAjiqWRgQqq1Xk-18" value="" style="rounded=0;orthogonalLoop=1;jettySize=auto;exitX=0.5;exitY=0;exitDx=0;exitDy=0;entryX=0.335;entryY=0.971;entryDx=0;entryDy=0;entryPerimeter=0;" parent="YxgZHzmAjiqWRgQqq1Xk-1" source="YxgZHzmAjiqWRgQqq1Xk-19" target="YxgZHzmAjiqWRgQqq1Xk-35" edge="1">
          <mxGeometry relative="1" as="geometry" />
        </mxCell>
        <mxCell id="YxgZHzmAjiqWRgQqq1Xk-19" value="H1_1 =&#xa;Hash(L1)" style="ellipse;strokeColor=#d6b656;strokeWidth=3;fillColor=#fff2cc;" parent="YxgZHzmAjiqWRgQqq1Xk-1" vertex="1">
          <mxGeometry x="17" y="280" width="82.5" height="60" as="geometry" />
        </mxCell>
        <mxCell id="YxgZHzmAjiqWRgQqq1Xk-20" value="" style="edgeStyle=none;rounded=0;orthogonalLoop=1;jettySize=auto;exitX=0.5;exitY=0;exitDx=0;exitDy=0;entryX=0.752;entryY=0.943;entryDx=0;entryDy=0;entryPerimeter=0;" parent="YxgZHzmAjiqWRgQqq1Xk-1" source="YxgZHzmAjiqWRgQqq1Xk-21" target="YxgZHzmAjiqWRgQqq1Xk-35" edge="1">
          <mxGeometry relative="1" as="geometry" />
        </mxCell>
        <mxCell id="YxgZHzmAjiqWRgQqq1Xk-21" value="H1_2 =&#xa;Hash(L2)" style="ellipse;strokeColor=#d6b656;strokeWidth=3;fillColor=#fff2cc;" parent="YxgZHzmAjiqWRgQqq1Xk-1" vertex="1">
          <mxGeometry x="108.25" y="280" width="85" height="60" as="geometry" />
        </mxCell>
        <mxCell id="YxgZHzmAjiqWRgQqq1Xk-22" value="" style="edgeStyle=none;rounded=0;orthogonalLoop=1;jettySize=auto;exitX=0.5;exitY=0;exitDx=0;exitDy=0;entryX=0.333;entryY=0.986;entryDx=0;entryDy=0;entryPerimeter=0;" parent="YxgZHzmAjiqWRgQqq1Xk-1" source="YxgZHzmAjiqWRgQqq1Xk-23" target="YxgZHzmAjiqWRgQqq1Xk-37" edge="1">
          <mxGeometry relative="1" as="geometry" />
        </mxCell>
        <mxCell id="YxgZHzmAjiqWRgQqq1Xk-23" value="H1_3 =&#xa;Hash(L3)" style="ellipse;strokeColor=#d6b656;strokeWidth=3;fillColor=#fff2cc;" parent="YxgZHzmAjiqWRgQqq1Xk-1" vertex="1">
          <mxGeometry x="200.75" y="280" width="85" height="60" as="geometry" />
        </mxCell>
        <mxCell id="YxgZHzmAjiqWRgQqq1Xk-24" value="" style="edgeStyle=none;rounded=0;orthogonalLoop=1;jettySize=auto;exitX=0.5;exitY=0;exitDx=0;exitDy=0;entryX=0.692;entryY=0.971;entryDx=0;entryDy=0;entryPerimeter=0;" parent="YxgZHzmAjiqWRgQqq1Xk-1" source="YxgZHzmAjiqWRgQqq1Xk-25" target="YxgZHzmAjiqWRgQqq1Xk-37" edge="1">
          <mxGeometry relative="1" as="geometry" />
        </mxCell>
        <mxCell id="YxgZHzmAjiqWRgQqq1Xk-25" value="H1_4 =&#xa;Hash(L4)" style="ellipse;strokeColor=#d6b656;strokeWidth=3;fillColor=#fff2cc;" parent="YxgZHzmAjiqWRgQqq1Xk-1" vertex="1">
          <mxGeometry x="293.25" y="280" width="85" height="60" as="geometry" />
        </mxCell>
        <mxCell id="YxgZHzmAjiqWRgQqq1Xk-26" value="" style="edgeStyle=none;rounded=0;orthogonalLoop=1;jettySize=auto;exitX=0.5;exitY=0;exitDx=0;exitDy=0;entryX=0;entryY=1;entryDx=0;entryDy=0;dashed=1;" parent="YxgZHzmAjiqWRgQqq1Xk-1" source="YxgZHzmAjiqWRgQqq1Xk-27" target="YxgZHzmAjiqWRgQqq1Xk-39" edge="1">
          <mxGeometry relative="1" as="geometry" />
        </mxCell>
        <mxCell id="YxgZHzmAjiqWRgQqq1Xk-27" value="H1_5 =&#xa;Hash(L5)" style="ellipse;strokeWidth=3;fillColor=#fff2cc;strokeColor=#d6b656;" parent="YxgZHzmAjiqWRgQqq1Xk-1" vertex="1">
          <mxGeometry x="397" y="280" width="85" height="60" as="geometry" />
        </mxCell>
        <mxCell id="YxgZHzmAjiqWRgQqq1Xk-28" value="" style="edgeStyle=none;rounded=0;orthogonalLoop=1;jettySize=auto;exitX=0.5;exitY=0;exitDx=0;exitDy=0;entryX=0.5;entryY=1;entryDx=0;entryDy=0;" parent="YxgZHzmAjiqWRgQqq1Xk-1" source="YxgZHzmAjiqWRgQqq1Xk-29" target="YxgZHzmAjiqWRgQqq1Xk-39" edge="1">
          <mxGeometry relative="1" as="geometry" />
        </mxCell>
        <mxCell id="YxgZHzmAjiqWRgQqq1Xk-29" value="H1_6 =&#xa;Hash(L6)" style="ellipse;strokeColor=#d6b656;strokeWidth=3;fillColor=#fff2cc;" parent="YxgZHzmAjiqWRgQqq1Xk-1" vertex="1">
          <mxGeometry x="497" y="280" width="85" height="60" as="geometry" />
        </mxCell>
        <mxCell id="YxgZHzmAjiqWRgQqq1Xk-30" value="" style="edgeStyle=none;rounded=0;orthogonalLoop=1;jettySize=auto;entryX=0;entryY=1;entryDx=0;entryDy=0;dashed=1;" parent="YxgZHzmAjiqWRgQqq1Xk-1" target="YxgZHzmAjiqWRgQqq1Xk-41" edge="1">
          <mxGeometry relative="1" as="geometry">
            <mxPoint x="642" y="280" as="sourcePoint" />
          </mxGeometry>
        </mxCell>
        <mxCell id="L_WM9c2VR_vckki1tdwL-0" value="" style="rounded=0;orthogonalLoop=1;jettySize=auto;exitX=0;exitY=0;exitDx=0;exitDy=0;entryX=1;entryY=1;entryDx=0;entryDy=0;" parent="YxgZHzmAjiqWRgQqq1Xk-1" source="YxgZHzmAjiqWRgQqq1Xk-31" target="YxgZHzmAjiqWRgQqq1Xk-39" edge="1">
          <mxGeometry relative="1" as="geometry" />
        </mxCell>
        <mxCell id="YxgZHzmAjiqWRgQqq1Xk-31" value="H1_7 =&#xa;Hash(L7)" style="ellipse;strokeColor=#d6b656;strokeWidth=3;fillColor=#fff2cc;" parent="YxgZHzmAjiqWRgQqq1Xk-1" vertex="1">
          <mxGeometry x="599.5" y="280" width="85" height="60" as="geometry" />
        </mxCell>
        <mxCell id="YxgZHzmAjiqWRgQqq1Xk-32" value="" style="edgeStyle=none;rounded=0;orthogonalLoop=1;jettySize=auto;exitX=0.5;exitY=0;exitDx=0;exitDy=0;entryX=0.729;entryY=1;entryDx=0;entryDy=0;entryPerimeter=0;" parent="YxgZHzmAjiqWRgQqq1Xk-1" source="YxgZHzmAjiqWRgQqq1Xk-33" target="YxgZHzmAjiqWRgQqq1Xk-41" edge="1">
          <mxGeometry relative="1" as="geometry" />
        </mxCell>
        <mxCell id="YxgZHzmAjiqWRgQqq1Xk-33" value="H1_8 =&#xa;Hash(L8)" style="ellipse;strokeColor=#d6b656;strokeWidth=3;fillColor=#fff2cc;" parent="YxgZHzmAjiqWRgQqq1Xk-1" vertex="1">
          <mxGeometry x="697" y="280" width="85" height="60" as="geometry" />
        </mxCell>
        <mxCell id="YxgZHzmAjiqWRgQqq1Xk-34" value="" style="edgeStyle=none;rounded=0;orthogonalLoop=1;jettySize=auto;exitX=0.5;exitY=0;exitDx=0;exitDy=0;entryX=0;entryY=1;entryDx=0;entryDy=0;" parent="YxgZHzmAjiqWRgQqq1Xk-1" source="YxgZHzmAjiqWRgQqq1Xk-35" target="YxgZHzmAjiqWRgQqq1Xk-43" edge="1">
          <mxGeometry relative="1" as="geometry" />
        </mxCell>
        <mxCell id="YxgZHzmAjiqWRgQqq1Xk-35" value="H2_1 =&#xa;Hash(H1_1, H1_2)" style="ellipse;strokeColor=#d6b656;strokeWidth=3;fillColor=#fff2cc;" parent="YxgZHzmAjiqWRgQqq1Xk-1" vertex="1">
          <mxGeometry x="35.75" y="190" width="120" height="70" as="geometry" />
        </mxCell>
        <mxCell id="YxgZHzmAjiqWRgQqq1Xk-36" value="" style="edgeStyle=none;rounded=0;orthogonalLoop=1;jettySize=auto;exitX=0.5;exitY=0;exitDx=0;exitDy=0;entryX=1;entryY=1;entryDx=0;entryDy=0;" parent="YxgZHzmAjiqWRgQqq1Xk-1" source="YxgZHzmAjiqWRgQqq1Xk-37" target="YxgZHzmAjiqWRgQqq1Xk-43" edge="1">
          <mxGeometry relative="1" as="geometry" />
        </mxCell>
        <mxCell id="YxgZHzmAjiqWRgQqq1Xk-37" value="H2_2 =&#xa;Hash(H1_3, H1_4)" style="ellipse;strokeColor=#d6b656;strokeWidth=3;fillColor=#fff2cc;" parent="YxgZHzmAjiqWRgQqq1Xk-1" vertex="1">
          <mxGeometry x="230" y="190" width="120" height="70" as="geometry" />
        </mxCell>
        <mxCell id="YxgZHzmAjiqWRgQqq1Xk-38" value="" style="edgeStyle=none;rounded=0;orthogonalLoop=1;jettySize=auto;exitX=0.5;exitY=0;exitDx=0;exitDy=0;entryX=0;entryY=1;entryDx=0;entryDy=0;" parent="YxgZHzmAjiqWRgQqq1Xk-1" source="YxgZHzmAjiqWRgQqq1Xk-39" target="YxgZHzmAjiqWRgQqq1Xk-45" edge="1">
          <mxGeometry relative="1" as="geometry" />
        </mxCell>
        <mxCell id="YxgZHzmAjiqWRgQqq1Xk-39" value="H2_3 =&#xa;Hash(H1_5, H1_6)" style="ellipse;strokeWidth=3;fillColor=#fff2cc;strokeColor=#FF6666;" parent="YxgZHzmAjiqWRgQqq1Xk-1" vertex="1">
          <mxGeometry x="449.5" y="190" width="120" height="70" as="geometry" />
        </mxCell>
        <mxCell id="YxgZHzmAjiqWRgQqq1Xk-40" value="" style="edgeStyle=none;rounded=0;orthogonalLoop=1;jettySize=auto;exitX=0.5;exitY=0;exitDx=0;exitDy=0;entryX=1;entryY=1;entryDx=0;entryDy=0;" parent="YxgZHzmAjiqWRgQqq1Xk-1" source="YxgZHzmAjiqWRgQqq1Xk-41" target="YxgZHzmAjiqWRgQqq1Xk-45" edge="1">
          <mxGeometry relative="1" as="geometry">
            <mxPoint x="697" y="190" as="targetPoint" />
          </mxGeometry>
        </mxCell>
        <mxCell id="YxgZHzmAjiqWRgQqq1Xk-41" value="H2_4 =&#xa;Hash(H1_7, H1_8)" style="ellipse;strokeWidth=3;fillColor=#fff2cc;strokeColor=#FF6666;" parent="YxgZHzmAjiqWRgQqq1Xk-1" vertex="1">
          <mxGeometry x="630" y="190" width="120" height="70" as="geometry" />
        </mxCell>
        <mxCell id="YxgZHzmAjiqWRgQqq1Xk-42" value="" style="edgeStyle=none;rounded=0;orthogonalLoop=1;jettySize=auto;exitX=0.5;exitY=0;exitDx=0;exitDy=0;entryX=0;entryY=1;entryDx=0;entryDy=0;" parent="YxgZHzmAjiqWRgQqq1Xk-1" source="YxgZHzmAjiqWRgQqq1Xk-43" target="YxgZHzmAjiqWRgQqq1Xk-46" edge="1">
          <mxGeometry relative="1" as="geometry" />
        </mxCell>
        <mxCell id="YxgZHzmAjiqWRgQqq1Xk-43" value="H3_1 =&#xa;Hash(H2_1, H2_2)" style="ellipse;strokeColor=#d6b656;strokeWidth=3;fillColor=#fff2cc;" parent="YxgZHzmAjiqWRgQqq1Xk-1" vertex="1">
          <mxGeometry x="130" y="100" width="120" height="70" as="geometry" />
        </mxCell>
        <mxCell id="YxgZHzmAjiqWRgQqq1Xk-44" value="" style="edgeStyle=none;rounded=0;orthogonalLoop=1;jettySize=auto;exitX=0;exitY=0;exitDx=0;exitDy=0;entryX=1;entryY=1;entryDx=0;entryDy=0;" parent="YxgZHzmAjiqWRgQqq1Xk-1" source="YxgZHzmAjiqWRgQqq1Xk-45" target="YxgZHzmAjiqWRgQqq1Xk-46" edge="1">
          <mxGeometry relative="1" as="geometry" />
        </mxCell>
        <mxCell id="YxgZHzmAjiqWRgQqq1Xk-45" value="H3_2 =&#xa;Hash(H2_3, H2_4)" style="ellipse;strokeWidth=3;fillColor=#fff2cc;strokeColor=#FF6666;" parent="YxgZHzmAjiqWRgQqq1Xk-1" vertex="1">
          <mxGeometry x="540" y="100" width="120" height="70" as="geometry" />
        </mxCell>
        <mxCell id="YxgZHzmAjiqWRgQqq1Xk-46" value="H4_1 =&#xa;Hash(H3_1, H3_2)" style="ellipse;strokeWidth=3;fillColor=#fff2cc;strokeColor=#FF6666;" parent="YxgZHzmAjiqWRgQqq1Xk-1" vertex="1">
          <mxGeometry x="340" y="10" width="120" height="70" as="geometry" />
        </mxCell>
        <mxCell id="bkpCFaXenFEgVXtUss_j-1" value="" style="shape=umlDestroy;strokeWidth=3;strokeColor=#FF6666;" parent="YxgZHzmAjiqWRgQqq1Xk-1" vertex="1">
          <mxGeometry x="403.5" y="360" width="66" height="50" as="geometry" />
        </mxCell>
        <mxCell id="bkpCFaXenFEgVXtUss_j-2" value="" style="shape=umlDestroy;strokeWidth=3;strokeColor=#FF6666;" parent="YxgZHzmAjiqWRgQqq1Xk-1" vertex="1">
          <mxGeometry x="406.5" y="280" width="66" height="50" as="geometry" />
        </mxCell>
      </root>
    </mxGraphModel>
  </diagram>
</mxfile>
